HIERARCHY
ROOT Hips
{
    OFFSET   0.000000   0.000000   0.000000
    CHANNELS 6 Xposition Yposition Zposition Zrotation Xrotation Yrotation
    JOINT Chest
    {
        OFFSET   0.000000   8.007230   0.000000
        CHANNELS 3 Zrotation Xrotation Yrotation
        JOINT Chest2
        {
            OFFSET   0.000000  22.077100   0.000000
            CHANNELS 3 Zrotation Xrotation Yrotation
            JOINT Neck
            {
                OFFSET   0.000000  23.255100   0.000000
                CHANNELS 3 Zrotation Xrotation Yrotation
                JOINT Head
                {
                    OFFSET   0.000000  14.370100   1.956600
                    CHANNELS 3 Zrotation Xrotation Yrotation
                    End Site
                    {
                        OFFSET   0.000000  19.566000   0.000000
                    }
                }
            }
            JOINT LeftCollar
            {
                OFFSET   3.911900  19.017000  -0.467063
                CHANNELS 3 Zrotation Xrotation Yrotation
                JOINT LeftShoulder
                {
                    OFFSET  10.383700   0.000000   0.000000
                    CHANNELS 3 Zrotation Xrotation Yrotation
                    JOINT LeftElbow
                    {
                        OFFSET  26.662100   0.001193   0.000980
                        CHANNELS 3 Zrotation Xrotation Yrotation
                        JOINT LeftWrist
                        {
                            OFFSET  28.869000  -0.000059  -0.000082
                            CHANNELS 3 Zrotation Xrotation Yrotation
                            JOINT LeftFinger0
                            {
                                OFFSET   2.044650  -2.323450   3.252850
                                CHANNELS 3 Zrotation Xrotation Yrotation
                                JOINT LeftFinger01
                                {
                                    OFFSET   3.088130   0.000000   0.000000
                                    CHANNELS 3 Zrotation Xrotation Yrotation
                                    JOINT LeftFinger02
                                    {
                                        OFFSET   2.639460   0.000000   0.000000
                                        CHANNELS 3 Zrotation Xrotation Yrotation
                                        End Site
                                        {
                                            OFFSET   2.582190   0.000000   0.000000
                                        }
                                    }
                                }
                            }
                            JOINT LeftFinger1
                            {
                                OFFSET   8.364480   0.000000   3.252850
                                CHANNELS 3 Zrotation Xrotation Yrotation
                                JOINT LeftFinger11
                                {
                                    OFFSET   4.646930   0.000000   0.000000
                                    CHANNELS 3 Zrotation Xrotation Yrotation
                                    JOINT LeftFinger12
                                    {
                                        OFFSET   2.323470   0.000000   0.000000
                                        CHANNELS 3 Zrotation Xrotation Yrotation
                                        End Site
                                        {
                                            OFFSET   2.273050   0.000000   0.000000
                                        }
                                    }
                                }
                            }
                            JOINT LeftFinger2
                            {
                                OFFSET   8.364490   0.000016   1.078090
                                CHANNELS 3 Zrotation Xrotation Yrotation
                                JOINT LeftFinger21
                                {
                                    OFFSET   5.111610   0.000000   0.000000
                                    CHANNELS 3 Zrotation Xrotation Yrotation
                                    JOINT LeftFinger22
                                    {
                                        OFFSET   2.788150   0.000016   0.000000
                                        CHANNELS 3 Zrotation Xrotation Yrotation
                                        End Site
                                        {
                                            OFFSET   2.727660   0.000000   0.000000
                                        }
                                    }
                                }
                            }
                            JOINT LeftFinger3
                            {
                                OFFSET   7.899780   0.000015  -1.078090
                                CHANNELS 3 Zrotation Xrotation Yrotation
                                JOINT LeftFinger31
                                {
                                    OFFSET   4.646930   0.000000   0.000000
                                    CHANNELS 3 Zrotation Xrotation Yrotation
                                    JOINT LeftFinger32
                                    {
                                        OFFSET   2.323470   0.000000   0.000000
                                        CHANNELS 3 Zrotation Xrotation Yrotation
                                        End Site
                                        {
                                            OFFSET   2.273050   0.000000   0.000000
                                        }
                                    }
                                }
                            }
                            JOINT LeftFinger4
                            {
                                OFFSET   7.435090   0.000000  -3.252850
                                CHANNELS 3 Zrotation Xrotation Yrotation
                                JOINT LeftFinger41
                                {
                                    OFFSET   3.717550   0.000000   0.000000
                                    CHANNELS 3 Zrotation Xrotation Yrotation
                                    JOINT LeftFinger42
                                    {
                                        OFFSET   1.858770   0.000000   0.000000
                                        CHANNELS 3 Zrotation Xrotation Yrotation
                                        End Site
                                        {
                                            OFFSET   1.818440   0.000000   0.000000
                                        }
                                    }
                                }
                            }
                        }
                    }
                }
            }
            JOINT RightCollar
            {
                OFFSET  -3.911910  19.017000  -0.467062
                CHANNELS 3 Zrotation Xrotation Yrotation
                JOINT RightShoulder
                {
                    OFFSET -10.383700   0.000014   0.000000
                    CHANNELS 3 Zrotation Xrotation Yrotation
                    JOINT RightElbow
                    {
                        OFFSET -26.662100   0.001225   0.001091
                        CHANNELS 3 Zrotation Xrotation Yrotation
                        JOINT RightWrist
                        {
                            OFFSET -28.869000  -0.000020  -0.000085
                            CHANNELS 3 Zrotation Xrotation Yrotation
                            JOINT RightFinger0
                            {
                                OFFSET  -2.044650  -2.323490   3.252850
                                CHANNELS 3 Zrotation Xrotation Yrotation
                                JOINT RightFinger01
                                {
                                    OFFSET  -3.088130   0.000000   0.000000
                                    CHANNELS 3 Zrotation Xrotation Yrotation
                                    JOINT RightFinger02
                                    {
                                        OFFSET  -2.639460   0.000000   0.000000
                                        CHANNELS 3 Zrotation Xrotation Yrotation
                                        End Site
                                        {
                                            OFFSET  -2.582190   0.000000   0.000000
                                        }
                                    }
                                }
                            }
                            JOINT RightFinger1
                            {
                                OFFSET  -8.364480   0.000000   3.252850
                                CHANNELS 3 Zrotation Xrotation Yrotation
                                JOINT RightFinger11
                                {
                                    OFFSET  -4.646930   0.000000   0.000000
                                    CHANNELS 3 Zrotation Xrotation Yrotation
                                    JOINT RightFinger12
                                    {
                                        OFFSET  -2.323470   0.000000   0.000000
                                        CHANNELS 3 Zrotation Xrotation Yrotation
                                        End Site
                                        {
                                            OFFSET  -2.273050   0.000000   0.000000
                                        }
                                    }
                                }
                            }
                            JOINT RightFinger2
                            {
                                OFFSET  -8.364480   0.000000   1.078090
                                CHANNELS 3 Zrotation Xrotation Yrotation
                                JOINT RightFinger21
                                {
                                    OFFSET  -5.111620   0.000000   0.000000
                                    CHANNELS 3 Zrotation Xrotation Yrotation
                                    JOINT RightFinger22
                                    {
                                        OFFSET  -2.788160   0.000000   0.000000
                                        CHANNELS 3 Zrotation Xrotation Yrotation
                                        End Site
                                        {
                                            OFFSET  -2.727660   0.000000   0.000000
                                        }
                                    }
                                }
                            }
                            JOINT RightFinger3
                            {
                                OFFSET  -7.899780   0.000000  -1.078090
                                CHANNELS 3 Zrotation Xrotation Yrotation
                                JOINT RightFinger31
                                {
                                    OFFSET  -4.646930   0.000000   0.000000
                                    CHANNELS 3 Zrotation Xrotation Yrotation
                                    JOINT RightFinger32
                                    {
                                        OFFSET  -2.323470   0.000000   0.000000
                                        CHANNELS 3 Zrotation Xrotation Yrotation
                                        End Site
                                        {
                                            OFFSET  -2.273050   0.000000   0.000000
                                        }
                                    }
                                }
                            }
                            JOINT RightFinger4
                            {
                                OFFSET  -7.435090   0.000000  -3.252850
                                CHANNELS 3 Zrotation Xrotation Yrotation
                                JOINT RightFinger41
                                {
                                    OFFSET  -3.717550   0.000000   0.000000
                                    CHANNELS 3 Zrotation Xrotation Yrotation
                                    JOINT RightFinger42
                                    {
                                        OFFSET  -1.858760   0.000000   0.000000
                                        CHANNELS 3 Zrotation Xrotation Yrotation
                                        End Site
                                        {
                                            OFFSET  -1.818440   0.000000   0.000000
                                        }
                                    }
                                }
                            }
                        }
                    }
                }
            }
        }
    }
    JOINT LeftHip
    {
        OFFSET   9.783030   0.000000   0.000000
        CHANNELS 3 Zrotation Xrotation Yrotation
        JOINT LeftKnee
        {
            OFFSET   0.000063 -41.789100   0.000608
            CHANNELS 3 Zrotation Xrotation Yrotation
            JOINT LeftAnkle
            {
                OFFSET   0.000048 -41.133200  -0.000184
                CHANNELS 3 Zrotation Xrotation Yrotation
                JOINT LeftToe
                {
                    OFFSET   0.000000  -6.358960  14.674500
                    CHANNELS 3 Zrotation Xrotation Yrotation
                    End Site
                    {
                        OFFSET   0.000000   0.000000   3.913200
                    }
                }
            }
        }
    }
    JOINT RightHip
    {
        OFFSET  -9.783030   0.000000   0.000000
        CHANNELS 3 Zrotation Xrotation Yrotation
        JOINT RightKnee
        {
            OFFSET   0.000071 -41.789100   0.001239
            CHANNELS 3 Zrotation Xrotation Yrotation
            JOINT RightAnkle
            {
                OFFSET   0.000037 -41.133200  -0.000166
                CHANNELS 3 Zrotation Xrotation Yrotation
                JOINT RightToe
                {
                    OFFSET   0.000000  -6.358960  14.674500
                    CHANNELS 3 Zrotation Xrotation Yrotation
                    End Site
                    {
                        OFFSET   0.000000   0.000000   3.913200
                    }
                }
            }
        }
    }
}
MOTION
Frames: 6
Frame Time:   0.016667
  0.107899  89.997300   1.894790  -0.355957  -2.882590   0.597602   0.374191   2.353690   0.701292   0.720408   4.711750   1.388940  -0.697363   0.240578   0.007536  -1.145700   0.487935   4.674360  -4.437370  -0.220462   4.061860 -72.987200  20.509900   1.811480  -3.268910  -6.248140 -16.459900  14.302400  -4.214410  10.554600  48.810700  42.851000 -86.443400 -20.698800   0.008016   0.003092  -5.349370   0.006486   0.008505 -37.304100   7.339400  -9.518040 -31.022100   0.006272   0.011102 -21.715500  -0.005439   0.008810 -33.114400  -1.310070   2.001700 -49.702700  -0.013642   0.001858 -33.104000  -0.003487   0.000535 -29.639400  -1.439490   2.529820 -44.506100  -0.015391   0.000284 -29.641000  -0.008446   0.006272 -37.457000  -1.771340   2.310420 -56.239200  -0.000241   0.001457 -37.455300  -0.004434   0.011978  10.177200  -0.447667   6.151670  67.475200  12.404600  -6.011400   2.433160  -7.718560  10.694400 -10.629100 -17.290400  -6.452100 -35.678000  28.035100  62.555800  32.260800   0.007095  -0.004364  11.130400   0.001905  -0.005101  28.351500   0.203564   0.377237  23.197200   0.000869   0.009992  16.238000   0.001473   0.006388  27.360700  -2.237630  -4.314790  28.937700  -0.001154  -0.002817  19.272500  -0.001377  -0.001492  27.631600  -4.857810  -9.184000  32.229700  -0.002896   0.004671  21.465000  -0.004314  -0.005150  37.217400  -6.322000  -8.249300  56.510700  -0.002041  -0.000661  37.636100  -0.001330  -0.012872   0.039828   4.015770   1.076620   0.525474   0.814642  13.853900  -4.822430  -3.494140   2.001660  -0.000000   0.000000  -0.000000   1.030710   3.842460  -8.503250  -0.207655   1.585520 -10.134500  -8.297110   0.588818   0.317878   0.000000   0.000000   0.000000
  0.107748  89.997000   1.883640  -0.355425  -2.894380   0.606075   0.371090   2.368700   0.710479   0.713645   4.741790   1.407380  -0.688520   0.229324   0.007505  -1.130980   0.465048   4.677150  -4.437270  -0.220050   4.041470 -72.954600  20.523900   1.786170  -3.283440  -6.286600 -16.475800  14.307400  -4.223050  10.547600  48.791400  42.850700 -86.438300 -20.718500   0.008023   0.003086  -5.359260   0.006479   0.008490 -37.311000   7.332340  -9.507490 -31.026600   0.006276   0.011107 -21.718600  -0.005434   0.008814 -33.114400  -1.309490   2.005460 -49.703100  -0.013645   0.001851 -33.104000  -0.003487   0.000534 -29.640000  -1.439350   2.535450 -44.507200  -0.015393   0.000282 -29.641800  -0.008449   0.006271 -37.459100  -1.775350   2.315510 -56.242600  -0.000239   0.001452 -37.457500  -0.004438   0.011980  10.195800  -0.447679   6.139840  67.470200  12.398600  -6.034230   2.446760  -7.701640  10.690700 -10.591800 -17.254300  -6.482100 -35.663200  28.029000  62.561100  32.273100   0.007089  -0.004390  11.136600   0.001907  -0.005111  28.340600   0.199801   0.370417  23.188200   0.000870   0.009993  16.231800   0.001473   0.006388  27.351900  -2.237530  -4.315660  28.896000  -0.001155  -0.002821  19.244700  -0.001378  -0.001494  27.631500  -4.857600  -9.184940  32.187400  -0.002899   0.004674  21.436800  -0.004314  -0.005150  37.205000  -6.321600  -8.251030  56.492300  -0.002042  -0.000664  37.623900  -0.001333  -0.012873   0.039833   4.016710   1.077800   0.529648   0.814907  13.854000  -4.823030  -3.487340   1.992150   0.000000   0.000000   0.000000   1.020720   3.853090  -8.500510  -0.197031   1.585000 -10.138800  -8.297370   0.590558   0.314775   0.000000   0.000000  -0.000000
  0.107531  89.996100   1.864640  -0.354584  -2.916470   0.618885   0.365090   2.394200   0.726538   0.700655   4.792790   1.439660  -0.674666   0.218070   0.007456  -1.108400   0.442157   4.686250  -4.437210  -0.219643   4.006190 -72.905600  20.547400   1.746670  -3.308740  -6.347750 -16.501700  14.314200  -4.236680  10.534100  48.758400  42.850400 -86.433200 -20.747600   0.008033   0.003080  -5.373820   0.006465   0.008475 -37.325900   7.325360  -9.492920 -31.037600   0.006284   0.011121 -21.726300  -0.005425   0.008827 -33.114200  -1.308900   2.011760 -49.705600  -0.013655   0.001833 -33.104000  -0.003488   0.000531 -29.644200  -1.439100   2.543610 -44.513900  -0.015397   0.000276 -29.646300  -0.008459   0.006269 -37.469800  -1.781590   2.322700 -56.259100  -0.000235   0.001437 -37.468500  -0.004447   0.011987  10.226200  -0.447713   6.118740  67.462400  12.392100  -6.074440   2.466590  -7.676570  10.679700 -10.535900 -17.191100  -6.535020 -35.639800  28.009100  62.569900  32.294100   0.007080  -0.004416  11.147100   0.001910  -0.005121  28.329700   0.196038   0.363596  23.179300   0.000870   0.009997  16.225500   0.001473   0.006391  27.343100  -2.236860  -4.316540  28.854200  -0.001158  -0.002831  19.216900  -0.001382  -0.001499  27.631700  -4.856190  -9.185880  32.145100  -0.002903   0.004683  21.408600  -0.004315  -0.005150  37.192900  -6.319000  -8.252720  56.473900  -0.002048  -0.000670  37.611600  -0.001340  -0.012876   0.039581   4.021160   1.081720   0.537071   0.815172  13.854000  -4.824150  -3.474730   1.977320  -0.000000   0.000000   0.000000   1.005150   3.869800  -8.495630  -0.181290   1.584450 -10.150700  -8.297640   0.592298   0.311673  -0.000000   0.000000   0.000000
  0.107419  89.994600   1.848470  -0.353998  -2.939370   0.626741   0.358049   2.415690   0.741719   0.685654   4.835770   1.470260  -0.663461   0.218642   0.007421  -1.089870   0.443289   4.699790  -4.437870  -0.222576   3.973190 -72.876900  20.567100   1.720610  -3.332250  -6.390570 -16.521500  14.316800  -4.246000  10.520100  48.729700  42.851000 -86.443200 -20.763200   0.008036   0.003096  -5.382610   0.006449   0.008484 -37.347400   7.331060  -9.488380 -31.055600   0.006299   0.011145 -21.739000  -0.005416   0.008846 -33.122200  -1.313360   2.016620 -49.719100  -0.013672   0.001805 -33.112200  -0.003487   0.000525 -29.655900  -1.438770   2.548130 -44.531500  -0.015402   0.000267 -29.658000  -0.008475   0.006265 -37.496000  -1.786460   2.326060 -56.298500  -0.000228   0.001413 -37.494800  -0.004461   0.011997  10.250600  -0.450485   6.097870  67.458600  12.394800  -6.113130   2.476700  -7.661690  10.659500 -10.507600 -17.131700  -6.584840 -35.605100  27.965100  62.573000  32.311900   0.007078  -0.004415  11.156000   0.001910  -0.005122  28.341300   0.203111   0.376518  23.188900   0.000871   0.010004  16.232200   0.001475   0.006396  27.345800  -2.228970  -4.301710  28.857500  -0.001164  -0.002845  19.219100  -0.001390  -0.001505  27.634700  -4.847830  -9.170770  32.148900  -0.002907   0.004698  21.411200  -0.004318  -0.005147  37.207600  -6.309530  -8.237710  56.493400  -0.002063  -0.000679  37.624600  -0.001350  -0.012885   0.038304   4.030690   1.089650   0.544576   0.814421  13.854100  -4.827530  -3.461590   1.967080  -0.000000   0.000000  -0.000000   0.994721   3.883450  -8.490730  -0.170488   1.590780 -10.172900  -8.297650   0.591605   0.321784  -0.000000   0.000000  -0.000000
  0.107372  89.992800   1.832010  -0.353505  -2.964910   0.632292   0.351020   2.437550   0.756271   0.670685   4.879490   1.499600  -0.657268   0.222650   0.007382  -1.079890   0.451255   4.724740  -4.441210  -0.227982   3.942770 -72.855400  20.587200   1.697850  -3.354810  -6.429730 -16.540600  14.317400  -4.254310  10.502000  48.714800  42.851400 -86.453100 -20.773500   0.008045   0.003120  -5.386720   0.006427   0.008495 -37.369300   7.336710  -9.485810 -31.074000   0.006318   0.011178 -21.751800  -0.005403   0.008872 -33.134100  -1.320570   2.022090 -49.736200  -0.013694   0.001767 -33.124300  -0.003487   0.000518 -29.668800  -1.438560   2.550110 -44.550900  -0.015409   0.000255 -29.670900  -0.008496   0.006260 -37.526600  -1.789110   2.327310 -56.344500  -0.000219   0.001382 -37.525500  -0.004480   0.012010  10.271500  -0.453243   6.077510  67.452900  12.400500  -6.150420   2.482920  -7.653270  10.635800 -10.480200 -17.074900  -6.635530 -35.560000  27.911000  62.570700  32.330300   0.007074  -0.004414  11.165200   0.001911  -0.005123  28.361500   0.213115   0.394733  23.205500   0.000871   0.010015  16.243800   0.001477   0.006403  27.349800  -2.218230  -4.280080  28.865700  -0.001172  -0.002863  19.224600  -0.001401  -0.001514  27.639200  -4.835820  -9.146050  32.158400  -0.002912   0.004717  21.417500  -0.004322  -0.005144  37.230200  -6.296820  -8.213310  56.524100  -0.002083  -0.000691  37.645100  -0.001364  -0.012896   0.036114   4.043840   1.098460   0.551708   0.813671  13.854300  -4.833000  -3.447570   1.959070  -0.000000   0.000000   0.000000   0.986145   3.891040  -8.486130  -0.162728   1.607370 -10.195700  -8.297720   0.590912   0.338078   0.000000   0.000000   0.000000
  0.107942  89.991000   1.815770  -0.353157  -2.991640   0.634727   0.345195   2.459490   0.768577   0.658315   4.923350   1.524510  -0.659051   0.238676   0.007308  -1.084700   0.483727   4.765060  -4.447760  -0.234963   3.919150 -72.839900  20.606900   1.678070  -3.371370  -6.461950 -16.556900  14.300700  -4.261980  10.475900  48.713600  42.849600 -86.450500 -20.778800   0.008077   0.003135  -5.386360   0.006393   0.008498 -37.384700   7.336620  -9.481130 -31.086500   0.006341   0.011217 -21.760000  -0.005383   0.008905 -33.141200  -1.326650   2.031120 -49.747400  -0.013722   0.001720 -33.131600  -0.003487   0.000510 -29.678900  -1.438600   2.545790 -44.566000  -0.015418   0.000240 -29.680900  -0.008521   0.006254 -37.553500  -1.786930   2.322950 -56.384600  -0.000206   0.001343 -37.552200  -0.004505   0.012026  10.286100  -0.450536   6.058700  67.440900  12.405100  -6.180210   2.485000  -7.651480  10.615800 -10.440300 -17.031100  -6.682610 -35.519600  27.860200  62.562500  32.354000   0.007055  -0.004386  11.177100   0.001923  -0.005123  28.384200   0.215750   0.399270  23.224000   0.000872   0.010028  16.256800   0.001479   0.006409  27.351800  -2.215120  -4.273400  28.882000  -0.001180  -0.002886  19.235400  -0.001412  -0.001528  27.641300  -4.829330  -9.132480  32.177200  -0.002919   0.004736  21.430000  -0.004326  -0.005140  37.247000  -6.290080  -8.199530  56.548900  -0.002105  -0.000706  37.661700  -0.001381  -0.012908   0.033232   4.059730   1.106050   0.556699   0.813878  13.854300  -4.840230  -3.434140   1.954240  -0.000000   0.000000  -0.000000   0.981002   3.884300  -8.483330  -0.162344   1.635960 -10.209000  -8.298010   0.591748   0.352697   0.000000   0.000000  -0.000000
